/* XPM */
static char *_519474110855[] = {
/* columns rows colors chars-per-pixel */
"64 64 57 1 ",
"  c #464747",
". c #515151",
"X c #545555",
"o c #565756",
"O c #5B5B5B",
"+ c #5D5E5A",
"@ c #5F5F5E",
"# c #5F605E",
"$ c #60615F",
"% c #606060",
"& c #626260",
"* c #646463",
"= c #646464",
"- c gray40",
"; c #676868",
": c #686868",
"> c #696968",
", c #6A6A6B",
"< c #6C6B6B",
"1 c #6B6C6B",
"2 c #6C6C6B",
"3 c #6B6C6C",
"4 c #6C6C6D",
"5 c #6D6E6F",
"6 c #706F6E",
"7 c #6F706F",
"8 c #70706E",
"9 c #71716F",
"0 c #6E6F70",
"q c #706F70",
"w c #6F7071",
"e c gray45",
"r c #747373",
"t c #737471",
"y c #747473",
"u c #777673",
"i c #737375",
"p c #747374",
"a c #737474",
"s c #757677",
"d c #777776",
"f c #787776",
"g c #777877",
"h c #787876",
"j c #777678",
"k c #787778",
"l c #777879",
"z c #797979",
"x c #7C7B7A",
"c c #7B7C7B",
"v c #7D7C7B",
"b c #7B7A7C",
"n c #7B7C7C",
"m c #7D7C7C",
"M c gray49",
"N c #7E7E7F",
"B c #81807F",
/* pixels */
"eydzMMzfdddedzkffzMzzzdffzMMvvvzvvvxvvhzxxzxfxzzxzhhxzvzvhMvvzhx",
":eddzzzddedddddjjdzzzzzydzxzzkzzyhzzzhhhfzhxdddddydhfzzdhxvzhzxz",
"5eee8dgpeerhzfddddddhdfdezxdfzzzfhvzzzvvzMhMziyhfffzzzzjzzzzzzzz",
"5e555edddddzzjddddbdzzhzdfMzxzMnzzzvvzvzzxzzzddfddhzzznzzvvzzzhz",
":et5888tjdzzzzxzzMzlzlzzzzMMzzzMzfhjhgzlnzlzggjdidjdljjdideddeea",
":<22<edegikMvzxznnMzzzMbzxzvvzzzjdidd50dzbzzzladeediitee@ee5eee0",
":q255552dlnMMnnbjzbnzMMMMzzzgjlgd5577:3dznMclhajdddddee0:de0weew",
"56::5262dlMMbnzzdzzMMzzzlzzgtdgzl7v755wwzMzzzldgdzdeddieidieaeew",
"805:15eeaghMM7jgdidlzjdjddyyitjadei5:wwwgzzlztdlzzjzkdzfzzddee0e",
"p8827ee8dlgzMetjdieadadhedyddzlde:w-;wtwdtllyedzMggzheeedgyydiee",
"0ee:edkddzccnjjajdeeed87e7eeeeii:w:7:3wadjaae8elzgti5258ee58pppd",
"5e86edMdzbzednnjzzedagdeteeeiddjzt8teedjzadd50azzhdee888dee5rdkd",
"0eeedjblvvyhzzzzbbjrdfr87y6edrfjdddedepjzld58edzdjddry88peeredkz",
"iqe5eejdvyyrzkfzzbe8r888de8ddedddddedyddnjdw65jMzdde886repqrddzd",
"iee87etdvgy6deeppdy85<:55e8eqrqdidedeeddznzde8dzddr28y8rryerdkxz",
"err8eiedvhe6dqd5edy5822<56886e5edee6eeidzbjde8djd8ryrre6dfrefkkf",
"eeiyleddBhhyhyd:ep65658886665:eddeeyiedkzizy8ejdf88urry8vhppkkfp",
"e5iwieizzzyhfhhr5<66eer8ee8q25eddddqdijMvdddy5dgryy8rfy8rhfffffr",
"i5qee0dide88yhhrre6eqdeepeedyr8dzzpdbdzzzzgzy8tjffyhffdrfzkkdzxd",
"iippeidehr5eyyzyddreehyyd65dhfedMxznMzMzMMvdedalxhhhffrrfkzpfxkp",
"eeeiieqediedyfzddjdddzzkd05ekjdzzzzbnbzzbMzketdzxzdjddrepjpppkbj",
"qe5e5ededdtfhzzzjjbzkbjdzdreddkbbMzzbbnbkbkdtajzzhddfppepddddkdd",
"500iiidivzyzhzzzllkdjzjdkppp5fdzbzzklzzjzzzfiedzxkfdkdrdddkdzedi",
":5eirppdzzyhfxzzkhj+5jzjdfpq5ddzzkkkzzdddljiiidlkfpddppdpizjddie",
"0qpkeeddldddddjjzddeeikjldeweedzkjedjldldiaaedaldidepedpjdjzldpe",
":,ibdidjzjdddfzdkjdidlljdee5e5ydjdddgjddaaddeijdzdiddiiidjkzlyde",
"::iipdkdfddddpdiaddddljdi5#@58eididedjdaadaaeeiddididiiddpkzjdde",
"d35eipddzzdeiddddijjlljie3++:78iiieeajapaddieeajedpddreedpkjjdee",
"i00epdipzzzyddldjjdjlzlde-#&-:wddaitdajddjaedwdiedjdeeidkdddddiy",
"de50ipddznzfydjdddddlbjae5-$5eajjatdjddlggdeeidzdddpddrdjpidddid",
"djd3ikdjzzzhddjjdjdajzzde0eieeazdaaljdajzlljedazjdiyappddddiidee",
"0jiidfkkzzpkddjdjldjlzzddddjdedddjddllallladdikde:dddijpidddid8e",
"jjdejzzdde&ddjjijjadjlddjglljaldjddjlddajlddiwdjtwdaajddijdjdiee",
"azdidijjjdiddwddjdddazzldlaaidzdajddlljjlla;5elaawadjadadjaljddt",
"lbiajjddzzddi0edjiqiezzldajdiadllldjzdajdjeiedaddeddddidjlajdadi",
"znddzlldzbdewqiddieeddjdadjadjzlljjddiiaajeatjwdi0jjjdppjaaaiadd",
"jMdezjjddzdeeeedld5yjzzajdalddlzkdzjdi0ddieiddiieedddadddeei=ddd",
"az0ezkjiizdeqedpjdedjkjddjjzzjjzzzhjdddieyddjeaddijdideeideidiii",
";-0izdzzzzzdqeidjjdddkddjzdlzdjddkkkjddqeeajdedjzddddpidde5ddddi",
"55eikddkkfkkidjddpdddzjdzldzzljjdkjkdzdiieaddeidddjddiddeedidddz",
"e:50zddlzzzkzddddjjdjzlkzzzzzzdjjzzzzdjieepzddjdjjdpjdddiediiddj",
"q00dddlzzzhddddiddjagzdzdzkjjkddjjzddjhdeizhdidijdpejdieeyeeddjj",
"50ejdyhzczldydddwdddzzzjzjzddjjdddddddjdepddeeiddjdddjdeddrdddjj",
"ee5jddzzzzgdddddadaddzhljkdedjlgjddydjlddddideipdddeideerydeedjj",
"00:iddjzzzzdygzddidjlhhid*ddededdjyeddzzjjdddi5dddjdidddddajddjl",
"ewdddjzzzzzhddzddddddzzde5deddddjddeedjjdddllaedjd3ddddeddidjjzj",
"0e0jdzzjeagzdhzgdddddzzzdddiedddgdddedddjadjjd5tdeadedeiidadgjjd",
"500dlzlgdddjdhzzjaadjzdiireddrdhdddryydpdjaddypgddatedeeddjdddlj",
"5e0ejljdde::+&--;*:$:@5- .$O@5o:%&-o<$ddidiadpiddtittdededdjdjaj",
"eqejlble53e5rfd8id575825zdffledd5zez85iddadddteiideepeeyddddjddi",
"wewjzzzjhzzhzljdjjdiddddpdddddzlrfrdddipddajjdidaidededpedddiiaa",
"iwizzbadzzhhgljddddddkzjdjdpjdzjffddddddwedddiadedteedydededaddd",
"eidjdjdjdzldddddjddjdgljijpdjdjdzddjdidediddjaiadddiyadiidddlddi",
"0wpdiadddzzdddidldjdzlzjjdadjjdjfjdzdiidiepidddjjdadtderpdaidpdd",
"0eeeaajddzjdddd0dajddjjjdiaddjdldddddeeepededdjjdajadeeddddajddi",
"55deedjadzddddi:gzjdgjbzjdddjjaliddidaddpedejiddjaatieeiidddddii",
"56irejjadlddddeedzdjadzzddddjtgldddddddieiaddeddee:idyiajdjajdda",
"65:rdzldddddddyhzzdtijzzjdddddzzdjlldtajidda;0ididrddiddddpdldjj",
"e655tdzddlzyyyddlzjaadzjjajzddgaijjijddiddai:0deddidadddiddaddda",
"ii5eadltjjhddd88gzjddllzddjjdalljdddjpadjjddltiddddidpaddijdjddj",
"0ee5ddjjzdddydyyiieddjzdjddjddjjjadddiddddjidiipdaid7deaddjddadj",
"5ir6ijldjhzddddyjdeiddlgadadddjdjdjddididjdddeddaddiidddjjdaddad",
"0dp5edzdjdhdddddddaaidllad3,iadjaldiddddajd-ddeep5teeaaddddijddj",
"ejdeddbgzzdddpddadditdjjdteieejdddddapiiddjwdddddedddjdjjadadadj"
};
