/* XPM */
static char *_519472790658[] = {
/* columns rows colors chars-per-pixel */
"64 64 53 1 ",
"  c #675F51",
". c #6D6555",
"X c #6F6856",
"o c #6E6658",
"O c #6F6858",
"+ c #706957",
"@ c #736C5C",
"# c #77705D",
"$ c #78715E",
"% c #776F61",
"& c #777060",
"* c #7B7364",
"= c #7F7867",
"- c #7E7669",
"; c #7F7868",
": c #807967",
"> c #837C6C",
", c #867E71",
"< c #887F76",
"1 c #878070",
"2 c #8B8374",
"3 c #8F8877",
"4 c #8F8779",
"5 c #918A77",
"6 c #928B7B",
"7 c #968E81",
"8 c #9C9484",
"9 c #9F9887",
"0 c #9E9689",
"q c #A09987",
"w c #A39B8C",
"e c #A69E91",
"r c #A7A08D",
"t c #A8A18E",
"y c #ACA494",
"u c #AFA895",
"i c #AEA698",
"p c #B0A996",
"a c #B5AE9B",
"s c #B7B09D",
"d c #B8B19E",
"f c #B7AFA1",
"g c #BCB5A3",
"h c #BFB8A6",
"j c #BFB7A8",
"k c #BFB8A8",
"l c #C2BBA6",
"z c #C5BDAB",
"x c #C7BFB0",
"c c #C7C0AC",
"v c #C9C2AD",
"b c #C9C2B1",
"n c #D1C9BA",
/* pixels */
"2>>,1116667421,;<-7<-<<222243667746664607<7<7777772<11121>224741",
"wlxzjbbjjjkkcxbcjnjj%-bkkbcbxbxkzkllzzkff-%0jjjkfkxxccvlbcxzzg0-",
"exzzjxzzcxxxcxbxxbxx%<xbcbbbbbbbbbcvbbbbb7%yxxkxxzxxcccvczxzbzy@",
"ezjzzxzzxcxcxxxxkxxko-xbbccbvbbvbcvbcbbbx2%yjxxxxxzzccclclzlzly&",
"tzkzzzzzccczcccbbbkxO,cccccvvvbbvvvvvvvvb3&acclczzcclclcclccclu#",
"tzhzzzzzxkxcxxcxkbxkO;bbccvvvvbbvvvvvvvbb6&alcczzzcllccvccllllu#",
"tzkzzzzzzzzccczccbckO1cccvvcvbvvvvvvvvvbb4&azczczclccvcllcllccu#",
"tzzzzlzzkccckzczkcckO,ccccccvvbvvvvvvvvbb3&izczxczvccllvclclclu#",
"rzhlllclccclcclcccllX:ccvcvvvvvvvvvvvvvvn5$uxzzzzczclcclclclclu&",
"rlzzcllcczcllclccvclX1cccccccvvvvvvvvvnvv5*yxkxzczccccccccclclp&",
"yzkzzzclkczzllcllvll+1ccccccvcvvvvvvvvvvb4$ykxzlzzzzczclccclcca&",
"yzhzzzlcckzzcclcvvllX>zccccccvvvvvvvvvvvb3&yxxzzzzczzzclclllccp*",
"tzzzvlccvllvllclllll+1lvlvvlcvvcvvvvvvvvb4#yzxlxzzzcccccchlclci&",
"tzzzlvlcvvlllclcllvl+1vlclvvvcvvvvvvvvvnb6#uzxzzzlzllvlcccclclp&",
"rczzlvlvllvlllllllll+1vvllvlvvvvvvvvvvvvb5$yzlxzlclzllclcdclclp$",
"wzcllvllvlllllllllld 1lvvvvvcvvvvvvvvnvvb6$yhlllllclvlllcvclccu#",
"wlczzczczzkllchllckkO>ccccccccvvvvvvvvbbv5@tllzzlllczzzlzzzzzlu@",
"wcckzczzzzzlllzzhzjjO1bcccccvcvbvbbbnbnbb6#yhzkklczlzzzzzzzzzzu@",
"txxxcxczzzzzlzzkkkxjo,ccbccccvbbnvbnvbbbv6@uhzjzjzzzzjzxhzxzzzy&",
"0zbxjxcxczzczzkczjxfo-bxkccbvvbbbbbbbbbxn6oixhxzzzxzxzxxzxzzxxy&",
"<7888887669866650007%*7000000wwyyeeeewwey,&,77700e0wwew8086644%-",
",----*%-1$*$1$1#--%-<----****%*O@@%%%*%%@&2:-,*%%%%%%%%-->>,>2<7",
"70teeyyetttupppueee0-<0iyyyyiiyaiiuyyeeay<:0yyifiaiaiaayyewe084,",
"7ffiafifdssaaapsiffe%-fggggjjjkhhhghhjjag4@abxcbxxxxxzxxbxzxxk0%",
"7iaaddsuaaasddddffffO;fhhhdhhhhhjjggggdhk6#ycbccczccxxczzxzzbz0&",
"8faasussasssdppdfiifO;ggggdhhhhgggglglhha1*ucccccczzzccczbvvzzw-",
"8aaassssassaasaaaafi.=sghhhhhhhhhgggggggg4@iccccccccccczxvzxccw-",
"7iaasspppsassaassfffX=dghdhhdhhhhhggdgggg4&accccccccccccvzzvzcw*",
"7saaaassssaaaaasssaa.=dhdhhhdhhhdhldgdlgg4%iccccccccczccccxccce*",
"7aaaaauaspsasaaasasaX=gghhhhhdhhlhhldlglg4%abbccccczzzcccxcczce*",
"8aaaaaaapsssaaaassaaX:hggghhhdchldhdgdggg4@acvccccccbxcccxxxxxy%",
"8aaasaaaspassaaasasuX=ghghhddldlglldllghg4&avcccbbcccccczxzxzxy@",
"5ppddddppdpddlsdsasp.=ddhhhhhgghlgghhhhhg4%accvvvvvbvlvvvlvvvvu#",
"5ddpppdpdpddsv6psssuX1ghgdhhdhhhhllddhdhj4%abvvvvvvvvvvvvvvvvvu@",
"5ldddpddpddp6lsdaasuX=dhghdllhhhhghgdlhlg4%ablvvvvvvvvlvvvvlcva$",
"5ldpddpddppddlpaaaau+=hddghdcdghhhllllllg4%inzvvvvvvvvvvvvvlvvs$",
"6llddpdpdddpaaaaaasu+1shhghhhhhhlggghhhdg6@ucccvvvvvvvvvccvcvvp$",
"6vpdddpdpppdasaaaaau@=ddghdhgddlhlllhhllj6%avvvvvvvvvvvvvvvvvvs*",
"5pssdpppppdpappaaaauX=gdhdhhhhhhhhhghghlh4@avvvvvvvvvvvvvvvvbcs#",
"6dpdpdddddpddaaaasdp@1hhhghhhhhhhhhhhllgz2#pnvvcvvvvvvvvvvbbbca#",
"6vssapaapppapsaaaasu@=dhhgggghhhllllzlljj,-ubcbbbbbbbbbbvvcbbxf%",
"5dpsuuuutuuuuuppuupu.$sssdssssdsaaaasaaaf%@wjjzzkjkgkhhhggggjgeo",
"###$++......XX.#.X.+>&XX@+#OXX....++Oo.. -,. o@oO.OOOOX...X..o.-",
"56666r6588896r665r6621999999999888qq0880822400888888888668867822",
"0ggfvdddassssssgfgge*>fzkkckkkjjggjjjjjfg<*7fiaaaaaiiiiiaiiyyi8=",
"9jggdhdhgdfgdgfgffgiO*kzzcccczxxzzzxxzxzx>%7iffaafssaaaasasafi8&",
"rjffsfhdgsgfgdfgffff%-jzzzckcxkczzzzzxzxx,*8affaaaaaaasasaaads8*",
"rfgggggdssssssfafffiO-kczzczckzzzzzzzzxzz>*8ifafaaaaaaaiaaaasa8&",
"0fggggsfdgdsggfagffi@-kczczzzxzzlzlzzzkck1#8ffaffsaaasaaaassss8$",
"9gggshsgdsddssdggagaO-kcckclzcxzccccccccc1#8sasaafsfaaaaaadspp9#",
"9ssssffsssdsdssgfsgi@-kkclhcczzczzclkcckk2Orssaaaaaaaaaaapaasp8$",
"9gsfsgssddddddssgsfi%-kclclczzzzcllczcckc3@9aasafassassaaaaasa9#",
"9sfsssssdddddddsgsfi#=hccclcclzzclccccczc3Oraaassaasaaasapaaap8#",
"9ssssfsfdddasddsgsgyO=hcclclzczczzclkckcc3#rsaasasaasasaaaaasa9#",
"9sssssassdddddddgsgi&=hhllcczczzzzzzccckc3Orsaaasspsasasasaasaq#",
"8sassssssdddddddhffiO=hccclcclzzczzckxccc3#rfassassssasssssaasw#",
"9sdaasssssddddddddgyO;hcclclzzckzzzxzzckc4@tffddddssssddsssasp61",
"9fsassssssddddddhdgy#;dccccczczxzzzzzzccc2@wafddspsssdadssdass6$",
"9aaggaaaddddddddhddi#*cccckccccccccccxxkb2#tffaddpssasddasdsdlp1",
"8gdfaahasdsdggddddha$&hvcccccccccxzxkccbc2#qakffdddddddddsdddl6#",
"9gaasadsgsgfdhgdfsdy$*gvccccczzccbccbbbkv5$rddssddddddsdssdpdd61",
"0gfagdassgffhdglggkrO=hvcvccccckkckxckcbv1+tdpddddddllddddlddd6$",
"8gfaddsdsfggggsfffh9*1hvvbccccxbbbbxbkbbl115ddpsdpdd6ldsdddddds1",
"*;>;*&=:::111>>&*&##*$1666666666676474721###151#1#1$1$1$11$111##"
};
