/* XPM */
static char *_519140605159[] = {
/* columns rows colors chars-per-pixel */
"64 64 63 1 ",
"  c #A7973E",
". c #AB9B3B",
"X c #AC9C3B",
"o c #AE9F3A",
"O c #A8993D",
"+ c #A99A3C",
"@ c #B7A734",
"# c #B9A933",
"$ c #BBAB32",
"% c #BAAA33",
"& c #BEAE31",
"* c #BCAC32",
"= c #B8A834",
"- c #FE861F",
"; c #FBB717",
": c #FBBA1D",
"> c #FF8320",
", c #FF8421",
"< c #FF892B",
"1 c #FE8C2A",
"2 c #FF8A2D",
"3 c #C5B52C",
"4 c #C6B52C",
"5 c #C7B62C",
"6 c #C9B92A",
"7 c #C9B82B",
"8 c #DCCB1F",
"9 c #DDCB1F",
"0 c #DECC1E",
"q c #EAD817",
"w c #EBD917",
"e c #EDDA16",
"r c #ECDA17",
"t c #E5D31A",
"y c #E4D21B",
"u c #E5D31B",
"i c #E7D519",
"p c #E6D41A",
"a c #FAD213",
"s c #FAD313",
"d c #FAD415",
"f c #F2DF13",
"g c #F0DE14",
"h c #F9E510",
"j c #F9E610",
"k c #D2C025",
"l c #D1C026",
"z c #D8C722",
"x c #D9C821",
"c c #DBC920",
"v c #DAC821",
"b c #DCCA20",
"n c #9D8E43",
"m c #988946",
"M c #998A46",
"N c #9B8C44",
"B c #9A8C45",
"V c #958748",
"C c #261D87",
"Z c #281F85",
"A c #2F2681",
"S c #2D2482",
"D c #2A2184",
/* pixels */
"jj->->>>>>>>>>>>>>>>>>>>>>>>>>>>>>>>>>>>->>>>>>>>>>>->>>>>->>-jj",
"jjj1<<<<<<<<<<<<<<<<<<<<<<<<<<<<<<<<<<<<<2<<<<<<<<<<<<<<<<<<<jjj",
";jjjSCCCCCCCCCCCCCCCCCCCCCCCCCCCCCCCCCCCCCCCCCCCCCCCCCCCCCCSjjj;",
">:jjfACCCCCCCCCCCCCCCCCCCCCCCCCCCCCCCCCCCCCCCCCCCCCCCCCCCCSfjh;-",
">2VjjgSCCCCCCCCCCCCCCCCCCCCCCCCCCCCCCCCCCCCCCCCCCCCCCCCCCSgjjV>>",
">2CmjjgSCCCCCCCCCCCCCCCCCCCCCCCCCCCCCCCCCCCCCCCCCCCCCCCCSgjjmC>>",
">2CCmjjgSCCCCCCCCCCCCCCCCCCCCCCCCCCCCCCCCCCCCCCCCCCCCCCSfjjmCC>>",
">2CCCmjjeDCCCCCCCCCCCCCCCCCCCCCCCCCCCCCCCCCCCCCCCCCCCCZejjmCCC>>",
",2CCCCmjjeDCCCCCCCCCCCCCCCCCCCCCCCCCCCCCCCCCCCCCCCCCCSejjmCCCC>>",
">2CCCCZmjjeDCCCCCCCCCCCCCCCCCCCCCCCCCCCCCCCCCCCCCCCCDejjmCCCCC>>",
">2CCCCCCmjjeDCCCCCCCCCCCCCCCCCCCCCCCCCCCCCCCCCCCCCCDejjmCCCCCC>>",
">2CCCCCCCBjjeDCCCCCCCCCCCCCCCCCCCCCCCCCCCCCCCCCCCCDrjjBCCCCCCC>>",
">2CCCCCCCCBjjrDCCCCCCCCCCCCCCCCCCCCCCCCCCCCCCCCCCDrjjNCCCCCCCC>>",
">2CCCCCCCCCNjjrDCCCCCCCCCCCCCCCCCCCCCCCCCCCCCCCCDrjjmCCCCCCCCC>>",
">2CCCCCCCCCCNjjrDCCCCCCCCCCCCCCCCCCCCCCCCCCCCCCDejjBCCCCCCCCCC>>",
">2CCCCCCCCCCCBjjeDCCCCCCCCCCCCCCCCCCCCCCCCCCCCDejjNCCCCCCCCCCC>>",
">2CCCCCCCCCCCCnjjeDCCCCCCCCCCCCCCCCCCCCCCCCCCDejjnCCCCCCCCCCCC,-",
">2CCCCCCCCCCCCCNjjrDCCCCCCCCCCCCCCCCCCCCCCCCDejjNCCCCCCCCCCCCC>>",
">2CCCCCCCCCCCCCCOjjwZCCCCCCCCCCCCCCCCCCCCCCDwjj CCCCCCCCCCCCCC>>",
">2CCCCCCCCCCCCCCC jjwZCCCCCCCCCCCCCCCCCCCCCwjj CCCCCCCCCCCCCCC>>",
">2CCCCCCCCCCCCCCCC jjwZCCCCCCCCCCCCCCCCCCCejj CCCCCCCCCCCCCCCC>>",
">2CCCCCCCCCCCCCCCCCOjjwZCCCCCCCCCCCCCCCCCejjOCCCCCCCCCCCCCCCCC>>",
">2CCCCCCCCCCCCCCCCCCOjjwZCCCCCCCCCCCCCCDqjjOCCCCCCCCCCCCCCCCCC>>",
">2CCCCCCCCCCCCCCCCCCCOjjqZCCCCCCCCCCCCCqjjOCCCCCCCCCCCCCCCCCCC>>",
">2CCCCCCCCCCCCCCCCCCCCOjjiDCCCCCCCCCCDpjj+CCCCCCCCCCCCCCCCCCCC>>",
">2CCCCCCCCCCCCCCCCCCCCCOjjpCCCCCCCCCCpjjOCCCCCCCCCCCCCCCCCCCCC>>",
">2CCCCCCCCCCCCCCCCCCCCCCXjjpCCCCCCCCpjj.CCCCCCCCCCCCCCCCCCCCCC>>",
">2CCCCCCCCCCCCCCCCCCCCCCCOjjpCCCCCCpjj.CCCCCCCCCCCCCCCCCCCCCCC>>",
">2CCCCCCCCCCCCCCCCCCCCCCCCXjjpCCCCpjj.CCCCCCCCCCCCCCCCCCCCCCCC>>",
">2CCCCCCCCCCCCCCCCCCCCCCCCCXjjpCCpjj.CCCCCCCCCCCCCCCCCCCCCCCCC>>",
">2CCCCCCCCCCCCCCCCCCCCCCCCCCXjjtpjjXCCCCCCCCCCCCCCCCCCCCCCCCCC>>",
">2CCCCCCCCCCCCCCCCCCCCCCCCCCCXjjjjXCCCCCCCCCCCCCCCCCCCCCCCCCCC>>",
",2CCCCCCCCCCCCCCCCCCCCCCCCCCCChjjhCCCCCCCCCCCCCCCCCCCCCCCCCCCC,-",
",2CCCCCCCCCCCCCCCCCCCCCCCCCCCyhjhhyCCCCCCCCCCCCCCCCCCCCCCCCCCC>>",
"-2CCCCCCCCCCCCCCCCCCCCCCCCCCyhjX.jjyCCCCCCCCCCCCCCCCCCCCCCCCCC>>",
",2CCCCCCCCCCCCCCCCCCCCCCCCCyhh@CC@jjyCCCCCCCCCCCCCCCCCCCCCCCCC>>",
"-2CCCCCCCCCCCCCCCCCCCCCCCCyhj@CCCC@hjyCCCCCCCCCCCCCCCCCCCCCCCC>>",
"><CCCCCCCCCCCCCCCCCCCCCCCyjj@CCCCCC@jjyCCCCCCCCCCCCCCCCCCCCCCC>>",
">2CCCCCCCCCCCCCCCCCCCCCCujj@CCCCCCCC@jjyCCCCCCCCCCCCCCCCCCCCCC>>",
">2CCCCCCCCCCCCCCCCCCCCCujj@CCCCCCCCCD@jjyCCCCCCCCCCCCCCCCCCCCC>>",
">2CCCCCCCCCCCCCCCCCCCDbjj%CCCCCCCCCCCC@jj8CCCCCCCCCCCCCCCCCCCC>>",
">2CCCCCCCCCCCCCCCCCCC8jj%CCCCCCCCCCCCCD@jj8CCCCCCCCCCCCCCCCCCC>>",
">2CCCCCCCCCCCCCCCCCCbjj@CCCCCCCCCCCCCCCC%jj8CCCCCCCCCCCCCCCCCC>>",
">2CCCCCCCCCCCCCCCCCbjj@DCCCCCCCCCCCCCCCCC*jj8CCCCCCCCCCCCCCCCC>>",
">2CCCCCCCCCCCCCCCDbjj%CCCCCCCCCCCCCCCCCCCC%hhbCCCCCCCCCCCCCCCC>>",
">2CCCCCCCCCCCCCCCbjh*CCCCCCCCCCCCCCCCCCCCCC*jj8CCCCCCCCCCCCCCC>>",
">2CCCCCCCCCCCCCCbhj*CCCCCCCCCCCCCCCCCCCCCCCC*hj8CCCCCCCCCCCCCC>>",
">2CCCCCCCCCCCCCbjj*CCCCCCCCCCCCCCCCCCCCCCCCCC*jj8CCCCCCCCCCCCC>>",
">2CCCCCCCCCCCCbjj*CCCCCCCCCCCCCCCCCCCCCCCCCCCC*jhbCCCCCCCCCCCC,,",
">2CCCCCCCCCCC8jj*CCCCCCCCCCCCCCCCCCCCCCCCCCCCCC*hhbCCCCCCCCCCC-,",
">2CCCCCCCCCC8jj*CCCCCCCCCCCCCCCCCCCCCCCCCCCCCCCC&jhbCCCCCCCCCC>>",
">2CCCCCCCCCzjj*CCCCCCCCCCCCCCCCCCCCCCCCCCCCCCCCCC&jhbCCCCCCCCC>>",
">2CCCCCCCZcjj3CCCCCCCCCCCCCCCCCCCCCCCCCCCCCCCCCCCC3jjbCCCCCCCC>>",
">2CCCCCCCzjj3CCCCCCCCCCCCCCCCCCCCCCCCCCCCCCCCCCCCCC3hhbCCCCCCC>>",
">2CCCCCCzjj3CCCCCCCCCCCCCCCCCCCCCCCCCCCCCCCCCCCCCCCC3jjxCCCCCC>>",
">2CCCCCzjj3CCCCCCCCCCCCCCCCCCCCCCCCCCCCCCCCCCCCCCCCCC3jjzCCCCC>>",
">2CCCCzjj5CCCCCCCCCCCCCCCCCCCCCCCCCCCCCCCCCCCCCCCCCCCC5jhzCCCC--",
">2CCCzjj5ZCCCCCCCCCCCCCCCCCCCCCCCCCCCCCCCCCCCCCCCCCCCCC5jjzCCC>>",
">2CCkjj5CCCCCCCCCCCCCCCCCCCCCCCCCCCCCCCCCCCCCCCCCCCCCCCC3jjkCC>>",
">2Ckjj7CCCCCCCCCCCCCCCCCCCCCCCCCCCCCCCCCCCCCCCCCCCCCCCCCC3jj6C>>",
">2ljj7CCCCCCCCCCCCCCCCCCCCCCCCCCCCCCCCCCCCCCCCCCCCCCCCCCCC5jjk--",
">djj7CCCCCCCCCCCCCCCCCCCCCCCCCCCCCCCCCCCCCCCCCCCCCCCCCCCCCC7jja-",
"ajjd,,,,,,,,,>>>,,,,,,,,,,,,,,,,,,,,,,,,,,,,,,,,,,,,,,,,>>>>ahha",
"hjd>>>>>>>>>>>>>>>>>>>>>>>>>>>>>>>>>>>>>>>>>>>>>>>>>>>>>>>>>-ahh"
};
